<svg xmlns="http://www.w3.org/2000/svg" width="1440" height="900"><path d="M754,646L587,643L550,832Z" fill="#5fa1cf" stroke="#5fa1cf" stroke-width="1.51"/><path d="M550,832L956,925L754,646Z" fill="#4f95c9" stroke="#4f95c9" stroke-width="1.51"/><path d="M550,832L603,1125L956,925Z" fill="#4b8cc2" stroke="#4b8cc2" stroke-width="1.51"/><path d="M603,1125L936,1160L956,925Z" fill="#3e7db9" stroke="#3e7db9" stroke-width="1.51"/><path d="M936,1160L1086,1082L956,925Z" fill="#3177b6" stroke="#3177b6" stroke-width="1.51"/><path d="M956,925L1192,488L754,646Z" fill="#4693c7" stroke="#4693c7" stroke-width="1.51"/><path d="M550,832L391,1258L603,1125Z" fill="#5b8bc0" stroke="#5b8bc0" stroke-width="1.51"/><path d="M76,609L132,884L550,832Z" fill="#7caad4" stroke="#7caad4" stroke-width="1.51"/><path d="M587,643L76,609L550,832Z" fill="#75acd4" stroke="#75acd4" stroke-width="1.51"/><path d="M754,646L466,236L587,643Z" fill="#71b0d6" stroke="#71b0d6" stroke-width="1.51"/><path d="M954,167L466,236L754,646Z" fill="#77b4d9" stroke="#77b4d9" stroke-width="1.51"/><path d="M603,1125L391,1258L936,1160Z" fill="#4c7db4" stroke="#4c7db4" stroke-width="1.51"/><path d="M132,884L391,1258L550,832Z" fill="#6b97c8" stroke="#6b97c8" stroke-width="1.51"/><path d="M1320,943L1192,488L956,925Z" fill="#3582be" stroke="#3582be" stroke-width="1.51"/><path d="M466,236L131,498L587,643Z" fill="#87bcdc" stroke="#87bcdc" stroke-width="1.51"/><path d="M131,498L76,609L587,643Z" fill="#87b8db" stroke="#87b8db" stroke-width="1.51"/><path d="M1192,488L954,167L754,646Z" fill="#5da3d0" stroke="#5da3d0" stroke-width="1.51"/><path d="M1086,1082L1320,943L956,925Z" fill="#2c76b6" stroke="#2c76b6" stroke-width="1.51"/><path d="M132,884L41,1075L391,1258Z" fill="#7595c7" stroke="#7595c7" stroke-width="1.51"/><path d="M-116,915L41,1075L132,884Z" fill="#82a2d1" stroke="#82a2d1" stroke-width="1.51"/><path d="M1097,151L990,91L954,167Z" fill="#7eb1d6" stroke="#7eb1d6" stroke-width="1.51"/><path d="M954,167L470,-102L466,236Z" fill="#98c4e1" stroke="#98c4e1" stroke-width="1.51"/><path d="M1192,488L1097,151L954,167Z" fill="#6da7d1" stroke="#6da7d1" stroke-width="1.51"/><path d="M213,144L212,160L466,236Z" fill="#aacfe5" stroke="#aacfe5" stroke-width="1.51"/><path d="M466,236L212,160L131,498Z" fill="#a0c9e2" stroke="#a0c9e2" stroke-width="1.51"/><path d="M131,498L-106,316L76,609Z" fill="#9dc5e3" stroke="#9dc5e3" stroke-width="1.51"/><path d="M470,-102L213,144L466,236Z" fill="#acd0e6" stroke="#acd0e6" stroke-width="1.51"/><path d="M212,160L-106,316L131,498Z" fill="#a9cde6" stroke="#a9cde6" stroke-width="1.51"/><path d="M-235,668L-116,915L76,609Z" fill="#91b7dc" stroke="#91b7dc" stroke-width="1.51"/><path d="M76,609L-116,915L132,884Z" fill="#88aed7" stroke="#88aed7" stroke-width="1.51"/><path d="M1320,943L1500,750L1192,488Z" fill="#307cbb" stroke="#307cbb" stroke-width="1.51"/><path d="M1192,488L1313,91L1097,151Z" fill="#6ba2ce" stroke="#6ba2ce" stroke-width="1.51"/><path d="M1320,943L1535,889L1500,750Z" fill="#226db1" stroke="#226db1" stroke-width="1.51"/><path d="M1549,1313L1535,889L1320,943Z" fill="#155ea7" stroke="#155ea7" stroke-width="1.51"/><path d="M1625,871L1535,889L1549,1313Z" fill="#125ba4" stroke="#125ba4" stroke-width="1.51"/><path d="M990,91L470,-102L954,167Z" fill="#91bedf" stroke="#91bedf" stroke-width="1.51"/><path d="M-49,76L212,160L213,144Z" fill="#bad6eb" stroke="#bad6eb" stroke-width="1.51"/><path d="M-49,76L-106,316L212,160Z" fill="#bad6ea" stroke="#bad6ea" stroke-width="1.51"/><path d="M-106,316L-235,668L76,609Z" fill="#9dc4e2" stroke="#9dc4e2" stroke-width="1.51"/><path d="M990,91L861,-322L470,-102Z" fill="#9ec6e3" stroke="#9ec6e3" stroke-width="1.51"/><path d="M1097,151L1239,-165L990,91Z" fill="#85b0d7" stroke="#85b0d7" stroke-width="1.51"/><path d="M1487,209L1313,91L1192,488Z" fill="#6599ca" stroke="#6599ca" stroke-width="1.51"/><path d="M1695,356L1487,209L1192,488Z" fill="#568dc3" stroke="#568dc3" stroke-width="1.51"/><path d="M1535,889L1625,871L1500,750Z" fill="#2069ae" stroke="#2069ae" stroke-width="1.51"/><path d="M1549,1313L1320,943L1086,1082Z" fill="#1862a9" stroke="#1862a9" stroke-width="1.51"/><path d="M1695,356L1192,488L1500,750Z" fill="#4082bc" stroke="#4082bc" stroke-width="1.51"/><path d="M-481,255L-459,1003L-235,668Z" fill="#a3c5e3" stroke="#a3c5e3" stroke-width="1.51"/><path d="M-101,-262L-49,76L213,144Z" fill="#cbdef0" stroke="#cbdef0" stroke-width="1.51"/><path d="M936,1160L1549,1313L1086,1082Z" fill="#2163a5" stroke="#2163a5" stroke-width="1.51"/><path d="M391,1258L1549,1313L936,1160Z" fill="#306aa5" stroke="#306aa5" stroke-width="1.51"/><path d="M1429,-236L1239,-165L1313,91Z" fill="#85a7d4" stroke="#85a7d4" stroke-width="1.51"/><path d="M1313,91L1239,-165L1097,151Z" fill="#81a9d4" stroke="#81a9d4" stroke-width="1.51"/><path d="M1239,-165L861,-322L990,91Z" fill="#92badd" stroke="#92badd" stroke-width="1.51"/><path d="M470,-102L280,-424L213,144Z" fill="#bfd9ec" stroke="#bfd9ec" stroke-width="1.51"/><path d="M1827,598L1695,356L1500,750Z" fill="#3874b1" stroke="#3874b1" stroke-width="1.51"/><path d="M1487,209L1547,46L1313,91Z" fill="#7198c9" stroke="#7198c9" stroke-width="1.51"/><path d="M1695,356L1547,46L1487,209Z" fill="#668ec1" stroke="#668ec1" stroke-width="1.51"/><path d="M-116,915L-436,1291L41,1075Z" fill="#859ccb" stroke="#859ccb" stroke-width="1.51"/><path d="M41,1075L-436,1291L391,1258Z" fill="#798fbd" stroke="#798fbd" stroke-width="1.51"/><path d="M-235,668L-459,1003L-116,915Z" fill="#92b1d9" stroke="#92b1d9" stroke-width="1.51"/><path d="M-481,255L-235,668L-106,316Z" fill="#afd1e9" stroke="#afd1e9" stroke-width="1.51"/><path d="M1695,356L1861,142L1547,46Z" fill="#6587b9" stroke="#6587b9" stroke-width="1.51"/><path d="M1625,871L1827,598L1500,750Z" fill="#276bac" stroke="#276bac" stroke-width="1.51"/><path d="M1837,1335L1827,598L1625,871Z" fill="#15579b" stroke="#15579b" stroke-width="1.51"/><path d="M1429,-236L617,-429L861,-322Z" fill="#a0c3e2" stroke="#a0c3e2" stroke-width="1.51"/><path d="M861,-322L617,-429L470,-102Z" fill="#b0d1e9" stroke="#b0d1e9" stroke-width="1.51"/><path d="M-459,1003L-436,1291L-116,915Z" fill="#8da2ce" stroke="#8da2ce" stroke-width="1.51"/><path d="M391,1258L-436,1291L1549,1313Z" fill="#567aab" stroke="#567aab" stroke-width="1.51"/><path d="M617,-429L280,-424L470,-102Z" fill="#c1dced" stroke="#c1dced" stroke-width="1.51"/><path d="M1239,-165L1429,-236L861,-322Z" fill="#92b5da" stroke="#92b5da" stroke-width="1.51"/><path d="M1547,46L1429,-236L1313,91Z" fill="#7e9fce" stroke="#7e9fce" stroke-width="1.51"/><path d="M1815,-288L1429,-236L1547,46Z" fill="#8199c9" stroke="#8199c9" stroke-width="1.51"/><path d="M-405,-41L-481,255L-106,316Z" fill="#c9e0ef" stroke="#c9e0ef" stroke-width="1.51"/><path d="M-405,-41L-106,316L-49,76Z" fill="#c8deef" stroke="#c8deef" stroke-width="1.51"/><path d="M280,-424L-101,-262L213,144Z" fill="#cfe1f2" stroke="#cfe1f2" stroke-width="1.51"/><path d="M1549,1313L1837,1335L1625,871Z" fill="#084b93" stroke="#084b93" stroke-width="1.51"/><path d="M-436,1291L1837,1335L1549,1313Z" fill="#2d649d" stroke="#2d649d" stroke-width="1.51"/><path d="M-101,-262L-405,-41L-49,76Z" fill="#d6e5f5" stroke="#d6e5f5" stroke-width="1.51"/><path d="M1837,1335L1861,142L1827,598Z" fill="#29639e" stroke="#29639e" stroke-width="1.51"/><path d="M1827,598L1861,142L1695,356Z" fill="#4d78ac" stroke="#4d78ac" stroke-width="1.51"/><path d="M1861,142L1815,-288L1547,46Z" fill="#768cbc" stroke="#768cbc" stroke-width="1.51"/><path d="M1429,-236L1815,-288L617,-429Z" fill="#93b1d9" stroke="#93b1d9" stroke-width="1.51"/><path d="M-101,-262L-471,-314L-405,-41Z" fill="#e3edf8" stroke="#e3edf8" stroke-width="1.51"/><path d="M-405,-41L-471,-314L-481,255Z" fill="#dfebf7" stroke="#dfebf7" stroke-width="1.51"/><path d="M280,-424L-471,-314L-101,-262Z" fill="#e1ecf8" stroke="#e1ecf8" stroke-width="1.51"/></svg>